ffmpeg started on 2016-11-30 at 07:26:12
Report written to "Output/x264/results/ffmpeg/old_town_cross_2160p50faster8000k.log"
Command line:
Tools/ffmpeg/ffmpeg -benchmark -y -i Input/y4m/old_town_cross_2160p50.y4m -c:v libx264 -preset faster -b:v 8000k -an Output/x264/encoded/old_town_cross_2160p50faster8000k.mkv
ffmpeg version N-82227-gdb23fde Copyright (c) 2000-2016 the FFmpeg developers
  built with gcc 5.4.0 (Ubuntu 5.4.0-6ubuntu1~16.04.2) 20160609
  configuration: --prefix=/home/jaroslav/ffmpeg_build --pkg-config-flags=--static --extra-cflags=-I/home/jaroslav/ffmpeg_build/include --extra-ldflags=-L/home/jaroslav/ffmpeg_build/lib --bindir=/home/jaroslav/bin --enable-gpl --enable-libass --enable-libfdk-aac --enable-libfreetype --enable-libmp3lame --enable-libopus --enable-libtheora --enable-libvorbis --enable-libvpx --enable-libx264 --enable-libx265 --enable-nvenc --enable-libmfx --enable-libxvid --enable-libgsm --enable-libopencore-amrnb --enable-version3 --enable-nonfree
  libavutil      55. 35.100 / 55. 35.100
  libavcodec     57. 66.101 / 57. 66.101
  libavformat    57. 57.100 / 57. 57.100
  libavdevice    57.  2.100 / 57.  2.100
  libavfilter     6. 66.100 /  6. 66.100
  libswscale      4.  3.100 /  4.  3.100
  libswresample   2.  4.100 /  2.  4.100
  libpostproc    54.  2.100 / 54.  2.100
Input #0, yuv4mpegpipe, from 'Input/y4m/old_town_cross_2160p50.y4m':
  Duration: 00:00:10.00, start: 0.000000, bitrate: 4976642 kb/s
    Stream #0:0: Video: rawvideo (I420 / 0x30323449), yuv420p(progressive), 3840x2160, SAR 1:1 DAR 16:9, 50 fps, 50 tbr, 50 tbn, 50 tbc
[libx264 @ 0x2a93120] using SAR=1/1
[libx264 @ 0x2a93120] using cpu capabilities: MMX2 SSE2Fast SSSE3 SSE4.2 AVX FMA3 AVX2 LZCNT BMI2
[libx264 @ 0x2a93120] profile High, level 5.2
[libx264 @ 0x2a93120] 264 - core 148 - H.264/MPEG-4 AVC codec - Copyleft 2003-2016 - http://www.videolan.org/x264.html - options: cabac=1 ref=2 deblock=1:0:0 analyse=0x3:0x113 me=hex subme=4 psy=1 psy_rd=1.00:0.00 mixed_ref=0 me_range=16 chroma_me=1 trellis=1 8x8dct=1 cqm=0 deadzone=21,11 fast_pskip=1 chroma_qp_offset=0 threads=6 lookahead_threads=1 sliced_threads=0 nr=0 decimate=1 interlaced=0 bluray_compat=0 constrained_intra=0 bframes=3 b_pyramid=2 b_adapt=1 b_bias=0 direct=1 weightb=1 open_gop=0 weightp=1 keyint=250 keyint_min=25 scenecut=40 intra_refresh=0 rc_lookahead=20 rc=abr mbtree=1 bitrate=8000 ratetol=1.0 qcomp=0.60 qpmin=0 qpmax=69 qpstep=4 ip_ratio=1.40 aq=1:1.00
Output #0, matroska, to 'Output/x264/encoded/old_town_cross_2160p50faster8000k.mkv':
  Metadata:
    encoder         : Lavf57.57.100
    Stream #0:0: Video: h264 (libx264) (H264 / 0x34363248), yuv420p, 3840x2160 [SAR 1:1 DAR 16:9], q=-1--1, 8000 kb/s, 50 fps, 1k tbn, 50 tbc
    Metadata:
      encoder         : Lavc57.66.101 libx264
    Side data:
      cpb: bitrate max/min/avg: 0/0/8000000 buffer size: 0 vbv_delay: -1
Stream mapping:
  Stream #0:0 -> #0:0 (rawvideo (native) -> h264 (libx264))
Press [q] to stop, [?] for help
frame=   27 fps= 21 q=0.0 size=       0kB time=00:00:00.00 bitrate=N/A speed=   0x    frame=   36 fps= 20 q=40.0 size=       1kB time=00:00:00.06 bitrate=  96.1kbits/s speed=0.034x    frame=   47 fps= 20 q=37.0 size=       1kB time=00:00:00.28 bitrate=  20.9kbits/s speed=0.122x    frame=   56 fps= 19 q=36.0 size=       1kB time=00:00:00.46 bitrate=  12.7kbits/s speed=0.154x    frame=   67 fps= 19 q=35.0 size=       1kB time=00:00:00.68 bitrate=   8.6kbits/s speed=0.195x    frame=   76 fps= 18 q=35.0 size=       1kB time=00:00:00.86 bitrate=   6.8kbits/s speed=0.205x    frame=   87 fps= 19 q=34.0 size=       1kB time=00:00:01.08 bitrate=   5.4kbits/s speed=0.23x    frame=   96 fps= 18 q=34.0 size=       1kB time=00:00:01.26 bitrate=   4.7kbits/s speed=0.234x    frame=  107 fps= 18 q=34.0 size=       1kB time=00:00:01.48 bitrate=   4.0kbits/s speed=0.251x    frame=  116 fps= 18 q=34.0 size=       1kB time=00:00:01.66 bitrate=   3.5kbits/s speed=0.252x    frame=  128 fps= 18 q=34.0 size=       1kB time=00:00:01.90 bitrate=   3.1kbits/s speed=0.261x    frame=  140 fps= 17 q=34.0 size=       1kB time=00:00:02.14 bitrate=   2.7kbits/s speed=0.267x    frame=  151 fps= 18 q=34.0 size=       1kB time=00:00:02.36 bitrate=   2.5kbits/s speed=0.277x    frame=  160 fps= 17 q=34.0 size=       1kB time=00:00:02.54 bitrate=   2.3kbits/s speed=0.276x    frame=  172 fps= 17 q=34.0 size=       1kB time=00:00:02.78 bitrate=   2.1kbits/s speed=0.28x    frame=  184 fps= 17 q=34.0 size=       1kB time=00:00:03.02 bitrate=   1.9kbits/s speed=0.284x    frame=  196 fps= 17 q=34.0 size=       1kB time=00:00:03.26 bitrate=   1.8kbits/s speed=0.287x    frame=  207 fps= 17 q=34.0 size=       1kB time=00:00:03.48 bitrate=   1.7kbits/s speed=0.294x    frame=  216 fps= 17 q=34.0 size=       1kB time=00:00:03.66 bitrate=   1.6kbits/s speed=0.292x    frame=  226 fps= 17 q=34.0 size=       1kB time=00:00:03.86 bitrate=   1.5kbits/s speed=0.296x    frame=  236 fps= 17 q=34.0 size=       1kB time=00:00:04.06 bitrate=   1.4kbits/s speed=0.295x    frame=  242 fps= 17 q=34.0 size=       1kB time=00:00:04.18 bitrate=   1.4kbits/s speed=0.287x    frame=  245 fps= 16 q=34.0 size=       1kB time=00:00:04.24 bitrate=   1.4kbits/s speed=0.276x    frame=  250 fps= 16 q=34.0 size=       1kB time=00:00:04.34 bitrate=   1.4kbits/s speed=0.272x    frame=  255 fps= 15 q=34.0 size=       1kB time=00:00:04.44 bitrate=   1.3kbits/s speed=0.269x    frame=  260 fps= 15 q=34.0 size=       1kB time=00:00:04.54 bitrate=   1.3kbits/s speed=0.266x    frame=  265 fps= 15 q=34.0 size=       1kB time=00:00:04.64 bitrate=   1.3kbits/s speed=0.263x    frame=  270 fps= 15 q=34.0 size=       1kB time=00:00:04.74 bitrate=   1.2kbits/s speed=0.26x    frame=  275 fps= 15 q=31.0 size=       1kB time=00:00:04.84 bitrate=   1.2kbits/s speed=0.256x    frame=  285 fps= 15 q=35.0 size=    4714kB time=00:00:05.04 bitrate=7661.4kbits/s speed=0.259x    frame=  296 fps= 15 q=35.0 size=    4714kB time=00:00:05.26 bitrate=7341.0kbits/s speed=0.264x    frame=  305 fps= 15 q=35.0 size=    4714kB time=00:00:05.44 bitrate=7098.1kbits/s speed=0.263x    frame=  315 fps= 15 q=35.0 size=    4714kB time=00:00:05.64 bitrate=6846.5kbits/s speed=0.267x    frame=  325 fps= 15 q=35.0 size=    4714kB time=00:00:05.84 bitrate=6612.0kbits/s speed=0.267x    frame=  336 fps= 15 q=35.0 size=    4714kB time=00:00:06.06 bitrate=6372.0kbits/s speed=0.271x    frame=  345 fps= 15 q=34.0 size=    4714kB time=00:00:06.24 bitrate=6188.3kbits/s speed=0.271x    frame=  356 fps= 15 q=34.0 size=    4714kB time=00:00:06.46 bitrate=5977.5kbits/s speed=0.274x    frame=  365 fps= 15 q=34.0 size=    4714kB time=00:00:06.64 bitrate=5815.5kbits/s speed=0.274x    frame=  376 fps= 15 q=34.0 size=    4714kB time=00:00:06.86 bitrate=5629.0kbits/s speed=0.277x    frame=  385 fps= 15 q=34.0 size=    4714kB time=00:00:07.04 bitrate=5485.1kbits/s speed=0.277x    frame=  396 fps= 15 q=34.0 size=    4714kB time=00:00:07.26 bitrate=5318.9kbits/s speed=0.28x    frame=  404 fps= 15 q=34.0 size=    4714kB time=00:00:07.42 bitrate=5204.3kbits/s speed=0.28x    frame=  413 fps= 15 q=34.0 size=    4714kB time=00:00:07.60 bitrate=5081.0kbits/s speed=0.28x    frame=  424 fps= 15 q=34.0 size=    4714kB time=00:00:07.82 bitrate=4938.1kbits/s speed=0.283x    frame=  433 fps= 15 q=34.0 size=    4714kB time=00:00:08.00 bitrate=4827.0kbits/s speed=0.282x    frame=  444 fps= 15 q=34.0 size=    4714kB time=00:00:08.22 bitrate=4697.8kbits/s speed=0.285x    frame=  453 fps= 15 q=34.0 size=    4714kB time=00:00:08.40 bitrate=4597.2kbits/s speed=0.285x    frame=  464 fps= 15 q=34.0 size=    4714kB time=00:00:08.62 bitrate=4479.9kbits/s speed=0.287x    frame=  473 fps= 15 q=34.0 size=    4714kB time=00:00:08.80 bitrate=4388.2kbits/s speed=0.286x    frame=  482 fps= 15 q=34.0 size=    4714kB time=00:00:08.98 bitrate=4300.3kbits/s speed=0.287x    frame=  483 fps= 15 q=34.0 size=    4714kB time=00:00:09.00 bitrate=4290.7kbits/s speed=0.283x    frame=  486 fps= 15 q=34.0 size=    4714kB time=00:00:09.06 bitrate=4262.3kbits/s speed=0.278x    frame=  491 fps= 15 q=34.0 size=    4714kB time=00:00:09.16 bitrate=4215.8kbits/s speed=0.276x    frame=  496 fps= 15 q=34.0 size=    4714kB time=00:00:09.26 bitrate=4170.3kbits/s speed=0.274x    frame=  500 fps= 15 q=34.0 size=    4714kB time=00:00:09.34 bitrate=4134.6kbits/s speed=0.272x    frame=  500 fps= 14 q=-1.0 Lsize=    9873kB time=00:00:09.94 bitrate=8136.0kbits/s speed=0.279x    
video:9869kB audio:0kB subtitle:0kB other streams:0kB global headers:0kB muxing overhead: 0.045530%
bench: utime=108.608s
bench: maxrss=1349116kB
[libx264 @ 0x2a93120] frame I:3     Avg QP:30.64  size:280282
[libx264 @ 0x2a93120] frame P:183   Avg QP:32.35  size: 29103
[libx264 @ 0x2a93120] frame B:314   Avg QP:34.31  size: 12541
[libx264 @ 0x2a93120] consecutive B-frames: 16.0%  0.8%  0.0% 83.2%
[libx264 @ 0x2a93120] mb I  I16..4: 33.2% 54.0% 12.9%
[libx264 @ 0x2a93120] mb P  I16..4:  1.7%  1.8%  0.0%  P16..4: 21.5%  2.9%  0.3%  0.0%  0.0%    skip:71.8%
[libx264 @ 0x2a93120] mb B  I16..4:  0.3%  0.2%  0.0%  B16..8: 13.2%  0.4%  0.0%  direct: 8.4%  skip:77.4%  L0:35.5% L1:64.0% BI: 0.4%
[libx264 @ 0x2a93120] final ratefactor: 26.46
[libx264 @ 0x2a93120] 8x8 transform intra:51.3% inter:68.1%
[libx264 @ 0x2a93120] coded y,uvDC,uvAC intra: 41.4% 33.9% 12.5% inter: 4.3% 3.4% 0.0%
[libx264 @ 0x2a93120] i16 v,h,dc,p: 42% 33% 18%  7%
[libx264 @ 0x2a93120] i8 v,h,dc,ddl,ddr,vr,hd,vl,hu: 11% 19% 48%  3%  3%  3%  5%  3%  5%
[libx264 @ 0x2a93120] i4 v,h,dc,ddl,ddr,vr,hd,vl,hu: 18% 27% 10%  7%  7%  6% 10%  6%  8%
[libx264 @ 0x2a93120] i8c dc,h,v,p: 71% 13% 14%  1%
[libx264 @ 0x2a93120] Weighted P-Frames: Y:0.5% UV:0.0%
[libx264 @ 0x2a93120] ref P L0: 79.6% 20.4%
[libx264 @ 0x2a93120] ref B L0: 90.6%  9.4%
[libx264 @ 0x2a93120] ref B L1: 96.5%  3.5%
[libx264 @ 0x2a93120] kb/s:8083.80
